<svg width="380" height="69" viewBox="0 0 380 69" fill="none" xmlns="http://www.w3.org/2000/svg">
<g clip-path="url(#clip0)">
<rect width="380" height="69" fill="white"/>
<path d="M10.4375 4.6875C14.5208 4.6875 17.625 7.22917 19.75 12.3125L20.125 14.6875C20.125 19.4375 17.4375 25.6667 12.0625 33.375C10.2708 35.125 8.625 36.25 7.125 36.75L7.3125 38.5L7.6875 62.9375C7.6875 63.8958 7.04167 64.4792 5.75 64.6875C4.58333 64.6875 4 63.8958 4 62.3125C4 44.1042 3.60417 35 2.8125 35C1.77083 33.5417 1.25 32.4375 1.25 31.6875C1.25 30.8542 1.89583 30.3125 3.1875 30.0625L2.5625 10.8125C2.5625 7.64583 3.25 6.0625 4.625 6.0625L5.75 6.25C7.33333 5.20833 8.89583 4.6875 10.4375 4.6875ZM6.5625 10.5625L7 31.0625L7.125 32.4375C9.875 31.3542 12.5625 27.2083 15.1875 20C16.0208 18.0417 16.4375 16.0833 16.4375 14.125C15.2708 10.3333 13.4375 8.4375 10.9375 8.4375H10.0625C8.72917 8.4375 7.5625 9.14583 6.5625 10.5625Z" fill="#535353"/>
<path d="M26.25 4.125C27.2917 4.125 27.8958 4.91667 28.0625 6.5H27.875L28.0625 7.125C29.4792 7.125 33.4167 6.6875 39.875 5.8125C40.9167 6.1875 41.4375 6.83333 41.4375 7.75C41.4375 9.08333 38.625 9.9375 33 10.3125L27.5 11.0625V13.8125C27.5 15.7708 28.2917 23.7083 29.875 37.625H37.875C38.9583 37.625 39.625 38.2292 39.875 39.4375C39.875 40.7292 38.8958 41.375 36.9375 41.375H29.875V41.625L29.6875 54.5625C29.6875 57.6458 30 59.8958 30.625 61.3125L43 60.5C44.3333 60.6667 45 61.25 45 62.25C45 63.5833 43.5417 64.25 40.625 64.25C33.125 64.6667 29.375 65.0625 29.375 65.4375C27.875 65.4375 26.8333 63.1458 26.25 58.5625L25.9375 53.8125L26.0625 39.625L23.75 13.8125V11.875C23.75 6.70833 24.5208 4.125 26.0625 4.125H26.25ZM51.875 8.625C52.5 8.66667 53.0833 9.1875 53.625 10.1875C53.3333 10.6458 53.1458 11.4792 53.0625 12.6875L53 13.5L53.375 38.125C53.1667 49.2917 53.2917 57.4792 53.75 62.6875L53.875 63.1875C53.5 63.9792 52.8958 64.3542 52.0625 64.3125C50.1875 64.1875 49.4375 61.6042 49.8125 56.5625C49.5625 53.8125 49.4375 41.1667 49.4375 18.625C49.1875 17.25 49.125 15.4375 49.25 13.1875V12.9375C49.4583 9.97917 50.3333 8.54167 51.875 8.625ZM65.0625 41.6875C67.3958 41.6875 68.9792 43.7917 69.8125 48C68.7292 52.7083 66.5 55.0625 63.125 55.0625H62.875V55.25C63.5417 59.0417 65.3125 60.9375 68.1875 60.9375C70.3958 60.9375 72.1875 59.0417 73.5625 55.25L74.9375 54.6875C75.8542 54.6875 76.4375 55.3958 76.6875 56.8125C76.6875 59.3958 74.6667 61.8333 70.625 64.125L67.625 64.6875C64.0417 64.6875 61.3542 62.125 59.5625 57C59.0625 54.9583 58.8125 53.2708 58.8125 51.9375V51.125C58.8125 46.875 60.5833 43.7917 64.125 41.875L65.0625 41.6875ZM62.75 49.5625V49.6875L64.125 51.125C64.75 51.125 65.3333 50.2708 65.875 48.5625V47.5625C65.6667 46.2708 65.3958 45.625 65.0625 45.625H64.6875C64.0625 45.625 63.4167 46.9375 62.75 49.5625ZM97.625 40.5625C100.667 42.0208 102.125 46.6667 102 54.5C102.208 58.6667 102.771 61.5625 103.688 63.1875V63.4375C103.604 64.3125 102.938 64.875 101.688 65.125C99.3958 64.9167 98.2292 59.25 98.1875 48.125L97.3125 45.25L96.5625 45.1875C95.1458 46.8958 94.3333 48.9792 94.125 51.4375C93.875 53.2708 93.8125 56.25 93.9375 60.375C93.3125 61.5 92.5833 62.0208 91.75 61.9375C90.3333 61.7292 89.6875 59.0208 89.8125 53.8125C89.0625 48.5208 88.25 45.8333 87.375 45.75H87C85.75 46.125 85 47.4375 84.75 49.6875L85.375 61.8125L85.3125 62.625C85.1875 63.5417 84.4583 64.1667 83.125 64.5C81.0417 64.2917 80.3125 57.0208 80.9375 42.6875C81.0625 41.8125 81.7083 41.2292 82.875 40.9375C84.0417 41.3958 84.6042 41.9167 84.5625 42.5H84.75L87.5625 42.0625C88.9792 42.2292 90.3958 43.3542 91.8125 45.4375L91.9375 45.5C93.8958 42.625 95.7917 40.9792 97.625 40.5625ZM112.5 41.6875C114.833 41.6875 116.417 43.7917 117.25 48C116.167 52.7083 113.938 55.0625 110.562 55.0625H110.312V55.25C110.979 59.0417 112.75 60.9375 115.625 60.9375C117.833 60.9375 119.625 59.0417 121 55.25L122.375 54.6875C123.292 54.6875 123.875 55.3958 124.125 56.8125C124.125 59.3958 122.104 61.8333 118.062 64.125L115.062 64.6875C111.479 64.6875 108.792 62.125 107 57C106.5 54.9583 106.25 53.2708 106.25 51.9375V51.125C106.25 46.875 108.021 43.7917 111.562 41.875L112.5 41.6875ZM110.188 49.5625V49.6875L111.562 51.125C112.188 51.125 112.771 50.2708 113.312 48.5625V47.5625C113.104 46.2708 112.833 45.625 112.5 45.625H112.125C111.5 45.625 110.854 46.9375 110.188 49.5625ZM137.5 41.875C141.708 42.2083 143.417 47.2708 142.625 57.0625L142.125 62.625C141.875 64.125 141.146 64.8333 139.938 64.75C138.812 64.6667 138.312 63.9167 138.438 62.5L138.875 56.4375C139.458 49.3125 138.833 45.6875 137 45.5625C135.042 45.3958 133.625 49.1042 132.75 56.6875L133 63.4375C132.917 64.3125 132.208 64.7708 130.875 64.8125C129.333 64.6875 128.75 62.4792 129.125 58.1875L127.625 43.875C127.708 42.9167 128.479 42.3958 129.938 42.3125C130.812 42.3542 131.333 43.2917 131.5 45.125L131.75 45.1875C133.625 42.8542 135.542 41.75 137.5 41.875ZM152.562 9.5C153.896 9.5 154.479 13.5208 154.312 21.5625C154.188 29.5625 154.125 35.2292 154.125 38.5625H154.25L158 38C159.208 38.1667 159.812 38.7708 159.812 39.8125C159.812 41.2292 158.5 41.9375 155.875 41.9375L154.25 42.5L154.812 63.4375C154.646 64.8542 154 65.5625 152.875 65.5625C151.542 65.5625 150.875 64.5833 150.875 62.625V57.6875L150.75 43.75L150.5 43.125L147.75 43.3125C146.583 43.0625 146 42.4167 146 41.375C146 40.0833 147.438 39.4375 150.312 39.4375V39.1875C150.312 33.8542 150.396 24.5417 150.562 11.25C150.562 10.2083 151.229 9.625 152.562 9.5ZM170.812 40.25C172.979 40.25 174.292 41.1667 174.75 43C174.75 43.875 174.167 44.4167 173 44.625H172.438C171.896 44.25 171.417 44.0625 171 44.0625H170.438C167.688 45.2292 166.312 46.9792 166.312 49.3125V49.875C166.521 51.25 167.167 51.9375 168.25 51.9375H168.812L173.125 51.125C175.25 51.375 176.312 52.4167 176.312 54.25C176.312 56.9583 174.667 59.8542 171.375 62.9375C169.833 64.1042 168.271 64.6875 166.688 64.6875C163.812 64.0625 162.375 62.875 162.375 61.125C162.792 60.0833 163.5 59.5625 164.5 59.5625L166.438 60.9375H167.438C170.479 59.7708 172 57.875 172 55.25L171.75 55C170.708 55.375 169.542 55.5625 168.25 55.5625C165.167 55.5625 163.271 53.5625 162.562 49.5625C162.562 45.9375 164.583 42.9792 168.625 40.6875L170.812 40.25Z" fill="black"/>
</g>
<defs>
<clipPath id="clip0">
<rect width="380" height="69" fill="white"/>
</clipPath>
</defs>
</svg>
